<?xml version="1.0" encoding="UTF-8" standalone="no"?>
<svg
   width="619.60657"
   height="616.39514"
   viewBox="0 0 156.85687 156.04388"
   version="1.1"
   id="svg66"
   sodipodi:docname="vscode.svg"
   inkscape:export-filename="vscode.svg"
   inkscape:export-xdpi="24.14819"
   inkscape:export-ydpi="24.14819"
   xmlns:inkscape="http://www.inkscape.org/namespaces/inkscape"
   xmlns:sodipodi="http://sodipodi.sourceforge.net/DTD/sodipodi-0.dtd"
   xmlns="http://www.w3.org/2000/svg"
   xmlns:svg="http://www.w3.org/2000/svg">
  <defs
     id="defs70" />
  <sodipodi:namedview
     id="namedview68"
     pagecolor="#505050"
     bordercolor="#ffffff"
     borderopacity="1"
     inkscape:showpageshadow="0"
     inkscape:pageopacity="0"
     inkscape:pagecheckerboard="1"
     inkscape:deskcolor="#505050"
     showgrid="false"
     inkscape:zoom="0.22193809"
     inkscape:cx="583.49605"
     inkscape:cy="1007.0376"
     inkscape:window-width="1280"
     inkscape:window-height="747"
     inkscape:window-x="0"
     inkscape:window-y="25"
     inkscape:window-maximized="1"
     inkscape:current-layer="svg66" />
  <path
     style="fill:currentcolor;stroke-width:0.347417"
     d="m 113.58704,155.92649 c -0.76432,-0.12352 -1.85868,-0.47644 -2.43192,-0.78423 -1.50985,-0.81071 -8.33307,-6.8855 -37.173697,-33.09612 C 59.841522,109.19567 47.755778,98.24997 47.124218,97.72236 c -0.939558,-0.784922 -1.286893,-0.895708 -1.9108,-0.609453 -0.419376,0.192414 -6.510526,4.667883 -13.535884,9.945513 -7.025361,5.27761 -13.580482,10.00464 -14.566937,10.50452 -3.373912,1.70968 -5.095224,0.82474 -12.5472356,-6.45071 -4.54214302,-4.43452 -4.96487477,-5.23587 -4.33067758,-8.20942 0.42169712,-1.97721 0.40532622,-1.96036 14.42716218,-14.850074 5.780162,-5.313479 10.509386,-9.769843 10.509386,-9.90305 0,-0.378741 -4.948198,-5.127126 -14.642477,-14.051219 C 5.626209,59.587261 1.2878302,55.43446 0.88591364,54.870018 -0.0840733,53.507797 -0.1268276,50.248682 0.80523844,48.720237 1.4367791,47.684604 7.3627363,42.083064 10.66571,39.399578 c 1.712443,-1.391266 3.767229,-1.931943 5.596917,-1.472721 0.955655,0.239853 7.094206,4.69355 20.350792,14.765081 4.83493,3.673279 8.991915,6.631817 9.23774,6.574524 C 46.096988,59.209169 59.7347,46.926573 76.157191,31.971809 105.81308,4.9663423 109.38948,1.7989878 111.40136,0.75860718 c 1.59868,-0.82671605 4.46526,-1.00744826 6.26307,-0.39487504 1.85952,0.63360289 26.18414,12.25052186 32.05404,15.30833386 3.93394,2.049298 4.25275,2.295987 5.6537,4.374745 l 1.4847,2.202986 -0.10241,55.629942 c -0.0796,43.245761 -0.19865,55.911251 -0.5348,56.893591 -0.85775,2.5067 -2.94191,3.87847 -14.45065,9.51115 -11.72976,5.74088 -20.67347,9.96221 -23.14442,10.92392 -2.07142,0.80623 -3.35768,0.98957 -5.03755,0.71809 z m 4.34272,-78.188053 V 41.596296 l -4.25587,3.20269 c -8.69244,6.54136 -33.892217,25.868818 -40.821579,31.308895 -1.194245,0.937576 -2.162708,1.807667 -2.152136,1.933531 0.01054,0.125869 0.440501,0.558222 0.9554,0.960774 18.71219,14.629595 45.387405,34.878394 45.947845,34.878394 0.20142,0 0.32634,-13.83484 0.32634,-36.142143 z"
     id="path883" />
</svg>
