<?xml version="1.0" standalone="no"?>
<!DOCTYPE svg PUBLIC "-//W3C//DTD SVG 20010904//EN"
 "http://www.w3.org/TR/2001/REC-SVG-20010904/DTD/svg10.dtd">
<svg version="1.0" xmlns="http://www.w3.org/2000/svg"
 width="853.000000pt" height="743.000000pt" viewBox="0 0 853.000000 743.000000"
 preserveAspectRatio="xMidYMid meet">

<g transform="translate(0.000000,743.000000) scale(0.100000,-0.100000)"
fill="#000000" stroke="none">
<path d="M4236 7420 c-65 -17 -156 -72 -197 -120 -35 -39 -1499 -2560 -1499
-2579 0 -4 292 -513 649 -1132 l650 -1124 1103 -3 1103 -2 348 -600 c191 -329
347 -602 347 -605 0 -3 -155 -5 -344 -5 l-343 0 -253 440 -252 440 -759 0
-758 0 88 -152 c49 -84 187 -322 306 -528 120 -206 353 -608 518 -892 l299
-518 1037 1 c570 0 1236 4 1481 8 425 8 448 9 503 31 108 41 197 131 238 240
24 64 29 171 10 245 -8 34 -294 541 -890 1575 l-877 1525 -1041 3 -1041 2
-105 178 c-184 312 -557 971 -557 984 1 20 325 571 335 569 6 0 194 -316 419
-701 l409 -700 694 0 c381 0 693 2 693 4 0 17 -1889 3262 -1920 3298 -27 32
-64 59 -114 84 -64 31 -86 37 -158 40 -45 2 -100 -1 -122 -6z"/>
<path d="M2319 4358 c-23 -40 -548 -935 -1166 -1988 -618 -1053 -1128 -1932
-1134 -1955 -16 -59 -6 -172 20 -223 34 -67 91 -123 156 -154 l60 -28 1368 0
c752 0 1367 3 1367 6 0 3 -154 268 -342 590 l-343 584 -232 0 c-128 0 -233 3
-233 6 0 8 388 684 400 697 4 4 251 -415 550 -932 l543 -941 721 1 c397 1 754
4 794 8 l72 6 -1270 2189 c-698 1205 -1274 2194 -1279 2199 -5 5 -26 -21 -52
-65z"/>
</g>
</svg>
